<svg width="18" height="16" viewBox="0 0 18 16" fill="none" xmlns="http://www.w3.org/2000/svg">
<path d="M0.866288 16C0.705522 16 0.559371 15.9594 0.427836 15.8782C0.296301 15.797 0.193995 15.6895 0.12092 15.5555C0.0478447 15.4216 0.00779954 15.277 0.000784311 15.1218C-0.00623091 14.9665 0.0338143 14.8148 0.12092 14.6666L8.23227 0.444444C8.31996 0.296296 8.43338 0.185185 8.57251 0.111111C8.71165 0.037037 8.854 0 8.99956 0C9.14513 0 9.28777 0.037037 9.42749 0.111111C9.56721 0.185185 9.68033 0.296296 9.76685 0.444444L17.8782 14.6666C17.9659 14.8148 18.0062 14.9668 17.9992 15.1226C17.9922 15.2785 17.9519 15.4228 17.8782 15.5555C17.8045 15.6883 17.7022 15.7958 17.5713 15.8782C17.4403 15.9606 17.2942 16.0012 17.1328 16H0.866288ZM2.37895 14.2222H15.6202L8.99956 2.66666L2.37895 14.2222ZM8.99956 13.3333C9.24802 13.3333 9.45643 13.248 9.6248 13.0773C9.79316 12.9066 9.87705 12.6957 9.87647 12.4444C9.87588 12.1932 9.7917 11.9822 9.62392 11.8115C9.45614 11.6409 9.24802 11.5555 8.99956 11.5555C8.75111 11.5555 8.54299 11.6409 8.37521 11.8115C8.20743 11.9822 8.12325 12.1932 8.12266 12.4444C8.12208 12.6957 8.20626 12.9069 8.37521 13.0782C8.54416 13.2495 8.75228 13.3345 8.99956 13.3333ZM8.99956 10.6666C9.24802 10.6666 9.45643 10.5813 9.6248 10.4106C9.79316 10.24 9.87705 10.029 9.87647 9.77776V7.1111C9.87647 6.85925 9.79228 6.64829 9.62392 6.47821C9.45555 6.30814 9.24744 6.2228 8.99956 6.22221C8.75169 6.22162 8.54357 6.30695 8.37521 6.47821C8.20684 6.64947 8.12266 6.86043 8.12266 7.1111V9.77776C8.12266 10.0296 8.20684 10.2409 8.37521 10.4115C8.54357 10.5822 8.75169 10.6672 8.99956 10.6666Z" fill="var(--warning)"/>
</svg>
